# xmcd
#
# Track frame offsets:
#	150
#	13025
#	26577
#	42200
#	61167
#	76152
#	94637
#	110235
#	125377
#	142927
#	162600
#	178745
#	197307
#	212737
#	236725
#	252345
#	270502
#	287127
#	304765
#	321037
#
# Disc length: 4528 seconds
#
# Revision: 1
# Processed by: cddbd v1.5.1PL0 Copyright (c) Steve Scherf et al.
# Submitted via: EasyCDDAExtractor 7.0.0.1
#
DISCID=1511ae14
DTITLE=The Shadows - Complete Singles As and Bs 1959-1980 CD4
DYEAR=2004
DGENRE=Instrumental
TTITLE0=Let Me Be The One
TTITLE1=Stand Up Like A Man
TTITLE2=Run Billy Run
TTITLE3=Honourable Puff Puff
TTITLE4=It'll Be Me Babe
TTITLE5=Like Strangers
TTITLE6=Another Night
TTITLE7=Cricket Bat Boogie
TTITLE8=Love Deluxe
TTITLE9=Sweet Saturday Night
TTITLE10=Don't Cry For Me Argentina
TTITLE11=Montezuma's Revange
TTITLE12=Theme From The deer Hunter(Cavatina)
TTITLE13=Bermuda Triangle
TTITLE14=Rodrigo's Guitar Concerto
TTITLE15=Song For Duke
TTITLE16=Riders In The Sky
TTITLE17=Rusk
TTITLE18=Heart Of Glass
TTITLE19=Return To The Alamo
EXTD=
EXTT0=
EXTT1=
EXTT2=
EXTT3=
EXTT4=
EXTT5=
EXTT6=
EXTT7=
EXTT8=
EXTT9=
EXTT10=
EXTT11=
EXTT12=
EXTT13=
EXTT14=
EXTT15=
EXTT16=
EXTT17=
EXTT18=
EXTT19=^^HEP^^
PLAYORDER=
